<svg width="145" height="36" fill="none" xmlns="http://www.w3.org/2000/svg"><path d="M27.2187 0v35.3h-7.6052v-2.4c-1.7012 1.9-4.1028 3.1-7.5052 3.1C5.50379 36 0 30.2 0 22.7 0 15.2 5.50379 9.4 12.1083 9.4c3.4024 0 5.9041 1.2 7.5052 3.1V0h7.6052Zm-7.6052 22.7c0-3.8-2.5017-6.2-6.0041-6.2s-6.00417 2.4-6.00417 6.2c0 3.8 2.50177 6.2 6.00417 6.2 3.5024-.1 6.0041-2.4 6.0041-6.2ZM43.7302 29.1999c2.1014 0 3.8026-.8 4.8033-1.9l6.1042 3.5c-2.5017 3.4-6.2043 5.2-11.0076 5.2-8.6059 0-14.0096-5.8-14.0096-13.3 0-7.5 5.4037-13.3 13.4092-13.3 7.4051 0 12.8088 5.7 12.8088 13.3 0 1.1-.1 2.1-.3002 3H37.626c1.0007 2.6 3.3023 3.5 6.1042 3.5Zm4.6032-9.1c-.8006-2.9-3.1022-4-5.4038-4-2.902 0-4.8033 1.4-5.5037 4h10.9075ZM82.1564 10.1001l-9.3064 25.2h-8.6059l-9.3064-25.2h8.4058l5.3036 16 5.3037-16h8.2056ZM83.4574 10.1001h7.6052v25.2h-7.6052v-25.2ZM93.6646 22.6999c0-7.5 5.7039-13.3 13.4094-13.3 4.903 0 9.206 2.6 11.408 6.5l-6.605 3.8c-.901-1.8-2.702-2.8-4.903-2.8-3.303 0-5.704 2.4-5.704 5.8 0 3.5 2.401 5.8 5.704 5.8 2.201 0 4.103-1.1 4.903-2.8l6.605 3.8c-2.102 3.9-6.405 6.5-11.408 6.5-7.7055 0-13.4094-5.8-13.4094-13.3ZM132.892 29.1999c2.101 0 3.802-.8 4.803-1.9l6.104 3.5c-2.502 3.4-6.204 5.2-11.007 5.2-8.606 0-14.01-5.8-14.01-13.3 0-7.5 5.504-13.3 13.409-13.3 7.405 0 12.809 5.7 12.809 13.3 0 1.1-.1 2.1-.3 3h-17.913c1.001 2.6 3.303 3.5 6.105 3.5Zm4.703-9.1c-.801-2.9-3.102-4-5.404-4-2.902 0-4.803 1.4-5.504 4h10.908ZM83.4574 0v10.1L91.0626 0h-7.6052Z" fill="#FFC700"/></svg>