<svg width="40" height="40" viewBox="0 0 40 40" fill="none" xmlns="http://www.w3.org/2000/svg"><circle cx="20" cy="20" r="20" fill="#fff" fill-opacity=".3"/><g clip-path="url(#a)"><path d="m25.4431 14.0736-11.82 4.558c-.8067.324-.802.774-.148.9746l3.0346.9467 7.0214-4.43c.332-.202.6353-.0933.386.128l-5.6887 5.134h-.0013l.0013.0007-.2093 3.128c.3066 0 .442-.1407.614-.3067l1.474-1.4333 3.066 2.2646c.5653.3114.9713.1514 1.112-.5233l2.0126-9.4853c.206-.826-.3153-1.2-.8546-.956Z" fill="#444"/></g><defs><clipPath id="a"><path fill="#fff" d="M13 14h14v12H13z"/></clipPath></defs></svg>