<svg width="40" height="40" viewBox="0 0 40 40" fill="none" xmlns="http://www.w3.org/2000/svg"><circle cx="20" cy="20" r="20" fill="#fff" fill-opacity=".3"/><g clip-path="url(#a)"><path d="M27.6671 16.6746a1.85761 1.85761 0 0 0-.5107-.8466 2.03345 2.03345 0 0 0-.892-.4947c-1.252-.33-6.268-.33-6.268-.33a51.09782 51.09782 0 0 0-6.26.3133 2.10732 2.10732 0 0 0-.892.5067c-.2467.2373-.4253.53-.5187.8507a19.39349 19.39349 0 0 0-.3253 3.6626c-.008 1.2274.1007 2.4534.3253 3.6627.0914.3193.2694.6107.5167.846.2473.2353.5553.4053.894.4953 1.2687.3294 6.26.3294 6.26.3294a51.18736 51.18736 0 0 0 6.268-.3134c.3345-.0864.6415-.2566.892-.4946.2435-.2309.4198-.5235.51-.8467.2301-1.2074.3419-2.4343.334-3.6633a17.72026 17.72026 0 0 0-.3333-3.678v.0006Zm-9.2654 5.9447v-4.5647l4.1734 2.2827-4.1734 2.282Z" fill="#444"/></g><defs><clipPath id="a"><path fill="#fff" d="M12 15h16v11H12z"/></clipPath></defs></svg>